<svg fill="none" height="256" viewBox="0 0 256 256" width="256" xmlns="http://www.w3.org/2000/svg" xmlns:xlink="http://www.w3.org/1999/xlink"><filter id="a" color-interpolation-filters="sRGB" filterUnits="userSpaceOnUse" height="268.413" width="219.092" x="18.8397" y="18.3207"><feFlood flood-opacity="0" result="BackgroundImageFix"/><feColorMatrix in="SourceAlpha" result="hardAlpha" type="matrix" values="0 0 0 0 0 0 0 0 0 0 0 0 0 0 0 0 0 0 127 0"/><feOffset dy="4"/><feGaussianBlur stdDeviation="2"/><feComposite in2="hardAlpha" operator="out"/><feColorMatrix type="matrix" values="0 0 0 0 0 0 0 0 0 0 0 0 0 0 0 0 0 0 0.25 0"/><feBlend in2="BackgroundImageFix" mode="normal" result="effect1_dropShadow_18_8"/><feBlend in="SourceGraphic" in2="effect1_dropShadow_18_8" mode="normal" result="shape"/></filter><linearGradient id="b" gradientUnits="userSpaceOnUse" x1="0" x2="256" y1="128" y2="128"><stop offset="0" stop-color="#533582"/><stop offset="1" stop-color="#7f54b3"/></linearGradient><clipPath id="c"><path d="m0 0h256v256h-256z"/></clipPath><g clip-path="url(#c)"><path d="m0 0h256v256h-256z" fill="url(#b)"/><g filter="url(#a)"><rect fill="#fff" height="260.413" rx="20" width="211.092" x="22.8397" y="18.3207"/></g><path d="m22.8397 150.664h211.262v105.41h-211.262z" fill="#3c2861"/><g fill="#fff"><path d="m105.464 214.456c-1.612 1.579-2.41 3.591-2.41 6.022 0 2.616.798 4.737 2.394 6.347s3.678 2.415 6.26 2.415c.861-.015 1.706-.155 2.52-.387v-3.87c-.72.217-1.456.341-2.206.371-1.284 0-2.301-.418-3.068-1.269s-1.158-2.013-1.158-3.468c0-1.362.375-2.477 1.142-3.359.705-.852 1.769-1.332 2.88-1.316.814 0 1.627.124 2.41.341v-3.886c-.861-.217-1.753-.325-2.645-.31-2.457 0-4.507.79-6.119 2.369zm16.777-2.369c-2.238 0-3.975.728-5.227 2.198-1.252 1.471-1.878 3.515-1.863 6.147 0 2.848.627 5.031 1.863 6.533 1.236 1.501 3.052 2.26 5.415 2.26 2.285 0 4.054-.759 5.29-2.26 1.236-1.518 1.863-3.623 1.863-6.348 0-2.724-.627-4.83-1.894-6.301-1.236-1.486-3.052-2.229-5.447-2.229zm1.925 12.432c-.407.65-1.142 1.037-1.909 1.006-.736.015-1.424-.372-1.769-1.006-.406-.666-.61-2.013-.61-4.041 0-3.143.798-4.722 2.411-4.722 1.705 0 2.566 1.595 2.566 4.768-.016 1.997-.251 3.313-.689 3.995zm17.389-11.967-.861 3.653c-.219.945-.438 1.904-.626 2.88l-.485 2.539c-.47-2.524-1.096-5.558-1.894-9.057h-5.619l-2.113 16.286h4.21l1.142-11.224 2.88 11.224h3.005l2.739-11.224 1.19 11.193h4.397l-2.237-16.27zm20.158 0-.861 3.653c-.219.945-.438 1.904-.626 2.88l-.485 2.539c-.47-2.524-1.096-5.558-1.894-9.057h-5.619l-2.112 16.271h4.209l1.143-11.224 2.879 11.224h3.005l2.755-11.209 1.189 11.193h4.398l-2.238-16.27zm13.662 9.83h3.96v-3.39h-3.96v-2.988h4.555v-3.452h-8.999v16.286h9.03v-3.484h-4.586zm17.107-2.57c1.252-1.966.751-4.551-1.127-5.929-1.205-.882-2.864-1.331-4.961-1.331h-5.18v16.286h4.444v-7.431h.078l3.6 7.415h4.695l-3.553-7.338c.83-.34 1.534-.929 2.004-1.672zm-6.824-.263v-3.87c1.049.031 1.816.201 2.27.526.453.325.688.867.688 1.61 0 1.13-.986 1.703-2.958 1.734zm10.158-5.093c-1.613 1.579-2.426 3.591-2.426 6.022 0 2.616.798 4.737 2.394 6.332 1.597 1.61 3.694 2.415 6.26 2.415.861-.016 1.707-.14 2.536-.372v-3.87c-.72.217-1.456.341-2.207.371-1.283 0-2.301-.418-3.083-1.269-.767-.851-1.158-2.013-1.158-3.468 0-1.362.376-2.477 1.142-3.359.705-.852 1.769-1.332 2.88-1.316.814 0 1.628.124 2.41.341v-3.886c-.86-.217-1.753-.325-2.645-.31-2.457 0-4.491.79-6.103 2.369zm14.429 10.883v-2.957h3.96v-3.39h-3.96v-2.988h4.555v-3.452h-9v16.286h9.031v-3.484h-4.586z"/><path clip-rule="evenodd" d="m93.8508 205.972h-48.1572c-3.0519 0-5.5247 2.446-5.5247 5.449v18.175c0 3.004 2.4728 5.45 5.5091 5.45h22.8187l10.4391 5.743-2.3633-5.743h17.2783c3.0362 0 5.5089-2.446 5.5089-5.45v-18.175c0-3.003-2.4727-5.449-5.5089-5.449zm-49.1745 4.195c-.5947.016-1.1425.295-1.5181.744-.36.464-.5008 1.052-.3756 1.641 1.4242 8.979 2.7545 15.032 3.9909 18.159.4539 1.146 1.0173 1.687 1.6747 1.641 1.0016-.077 2.2223-1.455 3.6466-4.164.3167-.627.7028-1.388 1.1562-2.282l.0002-.001.0024-.004c.6439-1.27 1.423-2.806 2.3313-4.603 1.3147 4.505 3.0988 7.896 5.3525 10.172.6417.634 1.2678.928 1.9094.882.5478-.031 1.0486-.372 1.2834-.867.2347-.48.3443-1.022.2817-1.564-.1565-2.182.0782-5.232.673-9.118.6103-4.025 1.3929-6.905 2.3319-8.638.1878-.341.2661-.744.2348-1.146-.0313-.542-.2974-1.053-.7356-1.378-.4225-.356-.9703-.526-1.5181-.48-.6887.031-1.299.434-1.5964 1.053-1.4868 2.709-2.5511 7.106-3.1927 13.174-1.0173-2.647-1.7842-5.387-2.285-8.174-.2661-1.424-.9234-2.09-1.9877-2.012-.7356.046-1.3303.526-1.8155 1.424l-5.3056 9.97c-.8608-3.483-1.6746-7.725-2.4258-12.71-.1879-1.223-.8921-1.796-2.1129-1.719zm35.3082 4.505c-.8138-1.439-2.2224-2.461-3.8657-2.771-.4383-.093-.8765-.139-1.3147-.139-2.3163 0-4.21 1.192-5.6812 3.576-1.2521 2.028-1.9094 4.366-1.8781 6.734 0 1.843.3913 3.422 1.1582 4.738.8138 1.439 2.2224 2.461 3.8657 2.771.4382.093.8764.139 1.3147.139 2.3319 0 4.2257-1.192 5.6812-3.576 1.252-2.044 1.9093-4.381 1.8781-6.781 0-1.842-.3913-3.406-1.1582-4.691zm-3.0519 6.642c-.3286 1.563-.939 2.74-1.8468 3.545-.7042.635-1.3616.883-1.9563.774-.5947-.108-1.0643-.635-1.4242-1.548-.2661-.697-.4226-1.424-.4226-2.183 0-.588.0626-1.176.1721-1.749.2348-1.022.6574-1.982 1.2835-2.849.7981-1.161 1.6433-1.656 2.5197-1.47.5947.123 1.0642.634 1.4242 1.548.266.696.4226 1.424.4226 2.167 0 .588-.047 1.177-.1722 1.765zm14.3359-9.413c1.6435.31 3.052 1.332 3.8655 2.771.7673 1.285 1.1585 2.849 1.1585 4.691.031 2.4-.6261 4.737-1.8783 6.781-1.4554 2.384-3.3489 3.576-5.6811 3.576-.4381 0-.8762-.046-1.3149-.139-1.6428-.31-3.0516-1.332-3.8655-2.771-.7668-1.316-1.1581-2.895-1.1581-4.738-.0313-2.368.6261-4.706 1.8781-6.734 1.4711-2.384 3.3652-3.576 5.6809-3.576.4388 0 .8768.046 1.3149.139zm-1.0331 12.958c.9078-.805 1.518-1.982 1.8472-3.545.1248-.588.1722-1.177.1722-1.765 0-.743-.157-1.471-.4229-2.167-.3602-.914-.8293-1.425-1.4243-1.548-.8762-.186-1.7213.309-2.5196 1.47-.6261.867-1.0484 1.827-1.2833 2.849-.1095.573-.1722 1.161-.1722 1.749 0 .759.1564 1.486.4223 2.183.3602.913.8299 1.44 1.4244 1.548.5951.109 1.2522-.139 1.9562-.774z" fill-rule="evenodd"/><path d="m121.664 179.555-.377 2.273h-6.733l.377-2.273zm-7.017 10.909 1.953-11.697c.128-.791.388-1.447.781-1.968.398-.521.888-.911 1.47-1.172.587-.26 1.222-.39 1.904-.39.464 0 .883.035 1.257.106.379.071.653.135.824.192l-.902 2.273c-.114-.038-.254-.074-.419-.107-.166-.033-.341-.05-.526-.05-.44 0-.765.105-.973.313-.203.204-.341.49-.412.859l-1.939 11.641zm11.592.213c-1.112 0-2.033-.237-2.762-.71-.729-.478-1.243-1.141-1.541-1.989-.294-.852-.348-1.844-.164-2.976.18-1.117.554-2.095 1.122-2.933.569-.838 1.291-1.489 2.167-1.953.875-.469 1.863-.703 2.961-.703 1.108 0 2.027.239 2.756.717.729.474 1.243 1.137 1.541 1.989s.355 1.844.17 2.976c-.184 1.112-.563 2.088-1.136 2.926s-1.295 1.491-2.166 1.96c-.871.464-1.854.696-2.948.696zm.299-2.344c.511 0 .963-.144 1.356-.433.398-.293.727-.691.988-1.193.265-.507.449-1.08.554-1.719.104-.63.111-1.188.021-1.676-.09-.492-.28-.881-.568-1.165-.284-.284-.675-.426-1.172-.426-.512 0-.966.147-1.364.44-.398.289-.727.687-.987 1.194-.261.506-.443 1.082-.547 1.725-.099.625-.106 1.184-.021 1.677.085.487.272.873.561 1.157.289.28.682.419 1.179.419zm7.024 2.131 1.818-10.909h2.933l-.319 1.903h.113c.313-.677.732-1.188 1.257-1.534.531-.35 1.101-.525 1.712-.525.152 0 .31.009.476.028.17.014.322.038.455.071l-.455 2.692c-.133-.048-.322-.085-.568-.114-.242-.033-.471-.05-.689-.05-.44 0-.85.098-1.229.292-.379.189-.698.454-.959.795-.255.341-.423.734-.504 1.179l-1.015 6.172z"/></g><path d="m86.5782 62.0635c0 3.5689-.6765 6.6051-2.0295 9.1087-1.3423 2.5035-3.1747 4.4158-5.4971 5.7368-2.3118 1.3104-4.9113 1.9656-7.7983 1.9656-2.9084 0-5.5185-.6605-7.8303-1.9816-2.3118-1.321-4.1388-3.2333-5.4812-5.7368-1.3423-2.5036-2.0135-5.5345-2.0135-9.0927 0-3.5689.6712-6.6051 2.0135-9.1087 1.3424-2.5035 3.1694-4.4105 5.4812-5.7209 2.3118-1.321 4.9219-1.9815 7.8303-1.9815 2.887 0 5.4865.6605 7.7983 1.9815 2.3224 1.3104 4.1548 3.2174 5.4971 5.7209 1.353 2.5036 2.0295 5.5398 2.0295 9.1087zm-7.0153 0c0-2.3118-.3462-4.2614-1.0387-5.8487-.6818-1.5874-1.6459-2.7912-2.8924-3.6115-1.2464-.8204-2.7059-1.2305-4.3785-1.2305s-3.1321.4101-4.3786 1.2305c-1.2464.8203-2.2159 2.0241-2.9084 3.6115-.6818 1.5873-1.0227 3.5369-1.0227 5.8487s.3409 4.2614 1.0227 5.8487c.6925 1.5874 1.662 2.7912 2.9084 3.6115 1.2465.8203 2.706 1.2305 4.3786 1.2305s3.1321-.4102 4.3785-1.2305c1.2465-.8203 2.2106-2.0241 2.8924-3.6115.6925-1.5873 1.0387-3.5369 1.0387-5.8487zm9.8909 16.3636v-32.7272h12.9122c2.471 0 4.581.4421 6.328 1.3263 1.758.8736 3.095 2.1147 4.011 3.7234.927 1.598 1.39 3.4783 1.39 5.6409 0 2.1733-.469 4.043-1.406 5.6091-.938 1.5554-2.296 2.7485-4.075 3.5795-1.768.831-3.91 1.2465-6.424 1.2465h-8.6453v-5.5611h7.5263c1.321 0 2.419-.1811 3.292-.5433.874-.3623 1.524-.9056 1.95-1.63.437-.7244.655-1.6247.655-2.7007 0-1.0866-.218-2.0028-.655-2.7485-.426-.7458-1.081-1.3104-1.966-1.6939-.873-.3942-1.976-.5913-3.308-.5913h-4.6658v27.0703zm17.6742-14.8934 8.134 14.8934h-7.639l-7.9579-14.8934zm21.209 14.8934h-11.602v-32.7272h11.698c3.291 0 6.125.6551 8.501 1.9655 2.376 1.2997 4.203 3.1694 5.481 5.609 1.289 2.4397 1.934 5.3587 1.934 8.7571 0 3.4091-.645 6.3388-1.934 8.7891-1.278 2.4503-3.116 4.3306-5.513 5.641-2.386 1.3103-5.242 1.9655-8.565 1.9655zm-4.683-5.9286h4.395c2.045 0 3.766-.3622 5.162-1.0866 1.406-.7351 2.461-1.8697 3.164-3.4038.713-1.5448 1.07-3.5369 1.07-5.9766 0-2.4183-.357-4.3945-1.07-5.9286-.703-1.5341-1.753-2.6633-3.148-3.3878-1.396-.7244-3.117-1.0866-5.162-1.0866h-4.411zm23.57 5.9286v-32.7272h22.053v5.7049h-15.133v7.7982h13.998v5.7049h-13.998v7.8143h15.197v5.7049zm25.304 0v-32.7272h12.912c2.472 0 4.581.4421 6.328 1.3263 1.758.8736 3.095 2.1147 4.011 3.7234.927 1.598 1.39 3.4783 1.39 5.6409 0 2.1733-.468 4.043-1.406 5.6091-.937 1.5554-2.296 2.7485-4.075 3.5795-1.768.831-3.91 1.2465-6.424 1.2465h-8.645v-5.5611h7.527c1.321 0 2.418-.1811 3.291-.5433.874-.3623 1.524-.9056 1.95-1.63.437-.7244.655-1.6247.655-2.7007 0-1.0866-.218-2.0028-.655-2.7485-.426-.7458-1.081-1.3104-1.965-1.6939-.874-.3942-1.977-.5913-3.308-.5913h-4.667v27.0703zm17.674-14.8934 8.134 14.8934h-7.639l-7.958-14.8934zm-118.1553 47.6243h-6.9993c-.1278-.906-.3889-1.71-.783-2.413-.3942-.714-.9002-1.321-1.5181-1.822s-1.3317-.884-2.1414-1.151c-.799-.266-1.6672-.399-2.6047-.399-1.6939 0-3.1694.421-4.4265 1.262-1.2571.831-2.2319 2.046-2.9244 3.644-.6925 1.587-1.0387 3.515-1.0387 5.784 0 2.334.3462 4.294 1.0387 5.881.7031 1.588 1.6832 2.786 2.9404 3.596 1.2571.809 2.7112 1.214 4.3625 1.214.9269 0 1.7845-.122 2.5728-.367.799-.245 1.5075-.602 2.1254-1.071.6179-.479 1.1292-1.06 1.5341-1.742.4155-.682.7031-1.459.8629-2.333l6.9993.032c-.1811 1.502-.6339 2.951-1.3583 4.347-.7138 1.385-1.6779 2.626-2.8924 3.723-1.2039 1.087-2.6421 1.95-4.3147 2.589-1.6619.628-3.5422.943-5.6409.943-2.9191 0-5.5292-.661-7.8303-1.982-2.2905-1.321-4.1016-3.233-5.4332-5.737-1.3211-2.503-1.9816-5.534-1.9816-9.093 0-3.568.6712-6.605 2.0135-9.108 1.3424-2.504 3.1641-4.411 5.4652-5.721 2.3012-1.3211 4.8899-1.9816 7.7664-1.9816 1.8963 0 3.6541.2663 5.2734.7986 1.63.533 3.0735 1.311 4.3306 2.334 1.2571 1.012 2.2798 2.253 3.0682 3.723.799 1.47 1.3104 3.153 1.5341 5.05zm2.7118 21.269v-32.7271h6.9194v27.0221h14.0305v5.705zm52.0825-16.364c0 3.569-.677 6.606-2.03 9.109-1.342 2.504-3.174 4.416-5.497 5.737-2.312 1.31-4.911 1.966-7.798 1.966-2.908 0-5.519-.661-7.83-1.982-2.312-1.321-4.1391-3.233-5.4815-5.737-1.3423-2.503-2.0135-5.534-2.0135-9.093 0-3.568.6712-6.605 2.0135-9.108 1.3424-2.504 3.1695-4.411 5.4815-5.721 2.311-1.3211 4.922-1.9816 7.83-1.9816 2.887 0 5.486.6605 7.798 1.9816 2.323 1.31 4.155 3.217 5.497 5.721 1.353 2.503 2.03 5.54 2.03 9.108zm-7.015 0c0-2.311-.347-4.261-1.039-5.848-.682-1.588-1.646-2.791-2.892-3.612-1.247-.82-2.706-1.23-4.379-1.23s-3.132.41-4.379 1.23c-1.246.821-2.215 2.024-2.908 3.612-.682 1.587-1.023 3.537-1.023 5.848 0 2.312.341 4.262 1.023 5.849.693 1.588 1.662 2.791 2.908 3.612 1.247.82 2.706 1.23 4.379 1.23s3.132-.41 4.379-1.23c1.246-.821 2.21-2.024 2.892-3.612.692-1.587 1.039-3.537 1.039-5.849zm37.264-16.3631v32.7271h-5.976l-14.238-20.598h-.24v20.598h-6.919v-32.7271h6.072l14.126 20.5821h.288v-20.5821zm3.467 32.7271v-32.7271h22.053v5.7051h-15.133v7.798h13.998v5.705h-13.998v7.814h15.197v5.705zm25.304 0v-32.7271h12.912c2.472 0 4.581.4421 6.328 1.3261 1.758.874 3.095 2.115 4.011 3.724.927 1.598 1.39 3.478 1.39 5.641 0 2.173-.468 4.043-1.406 5.609-.937 1.555-2.296 2.748-4.075 3.579-1.768.831-3.91 1.247-6.424 1.247h-8.645v-5.562h7.527c1.321 0 2.418-.181 3.291-.543.874-.362 1.524-.905 1.95-1.63.437-.724.655-1.624.655-2.7 0-1.087-.218-2.003-.655-2.749-.426-.746-1.081-1.31-1.965-1.694-.874-.394-1.977-.591-3.308-.591h-4.667v27.07zm17.674-14.893 8.134 14.893h-7.639l-7.958-14.893z" fill="#000"/></g></svg>